<svg width="121" height="121" viewBox="0 0 121 121" fill="none" xmlns="http://www.w3.org/2000/svg">
<path d="M27.9812 88.8594C33.275 85.1622 38.5267 82.3262 43.7364 80.3516C48.9462 78.3769 54.534 77.3896 60.5 77.3896C66.466 77.3896 72.0748 78.3769 77.3265 80.3516C82.5783 82.3262 87.851 85.1622 93.1448 88.8594C96.842 84.3219 99.4679 79.7424 101.022 75.1208C102.577 70.4993 103.354 65.6257 103.354 60.5C103.354 48.316 99.2578 38.1276 91.0651 29.9349C82.8724 21.7422 72.684 17.6458 60.5 17.6458C48.316 17.6458 38.1276 21.7422 29.9349 29.9349C21.7422 38.1276 17.6458 48.316 17.6458 60.5C17.6458 65.6257 18.4441 70.4993 20.0406 75.1208C21.6371 79.7424 24.284 84.3219 27.9812 88.8594ZM60.476 64.2813C55.6184 64.2813 51.53 62.6137 48.2109 59.2787C44.8918 55.9444 43.2323 51.8481 43.2323 46.9896C43.2323 42.1319 44.8998 38.0436 48.2349 34.7245C51.5691 31.4054 55.6654 29.7458 60.5239 29.7458C65.3816 29.7458 69.4699 31.4134 72.789 34.7484C76.1081 38.0827 77.7677 42.179 77.7677 47.0375C77.7677 51.8951 76.1002 55.9835 72.7651 59.3026C69.4309 62.6217 65.3345 64.2813 60.476 64.2813ZM60.5592 110.917C53.6294 110.917 47.0975 109.593 40.9635 106.946C34.8295 104.299 29.4727 100.686 24.8932 96.1068C20.3137 91.5273 16.7005 86.1801 14.0536 80.0654C11.4068 73.9516 10.0833 67.4184 10.0833 60.466C10.0833 53.5144 11.4068 46.9925 14.0536 40.9005C16.7005 34.8085 20.3137 29.4727 24.8932 24.8932C29.4727 20.3137 34.8198 16.7005 40.9345 14.0536C47.0484 11.4068 53.5816 10.0833 60.534 10.0833C67.4856 10.0833 74.0074 11.4068 80.0995 14.0536C86.1915 16.7005 91.5272 20.3137 96.1067 24.8932C100.686 29.4727 104.299 34.8098 106.946 40.9043C109.593 46.9988 110.917 53.511 110.917 60.4408C110.917 67.3705 109.593 73.9024 106.946 80.0365C104.299 86.1705 100.686 91.5273 96.1067 96.1068C91.5272 100.686 86.1902 104.299 80.0957 106.946C74.0011 109.593 67.489 110.917 60.5592 110.917ZM60.5 103.354C65.1215 103.354 69.638 102.682 74.0495 101.338C78.4609 99.9931 82.8094 97.6403 87.0948 94.2792C82.8094 91.2542 78.4399 88.9434 73.9864 87.3469C69.533 85.7503 65.0375 84.9521 60.5 84.9521C55.9625 84.9521 51.467 85.7503 47.0135 87.3469C42.56 88.9434 38.1906 91.2542 33.9052 94.2792C38.1906 97.6403 42.539 99.9931 46.9505 101.338C51.362 102.682 55.8785 103.354 60.5 103.354ZM60.5 56.7188C63.3569 56.7188 65.6887 55.8155 67.4953 54.0089C69.3019 52.2023 70.2052 49.8705 70.2052 47.0135C70.2052 44.1566 69.3019 41.8248 67.4953 40.0182C65.6887 38.2116 63.3569 37.3083 60.5 37.3083C57.643 37.3083 55.3113 38.2116 53.5047 40.0182C51.6981 41.8248 50.7948 44.1566 50.7948 47.0135C50.7948 49.8705 51.6981 52.2023 53.5047 54.0089C55.3113 55.8155 57.643 56.7188 60.5 56.7188Z" fill="#6B6B6B"/>
</svg>
